# Created by MKDS Course Modifier
mtllib Bench 2.mtl
g polygon0
usemtl h_kage
v 6.709961 1.023438 -13.56934
v -7.105469 1.023438 -13.46484
v 6.709961 1.023438 13.04492
v -7.105469 1.023438 13.04492
v 6.709961 1.023438 15.91504
v -3.696289 1.023438 15.91504
vn 0 0.9980469 0
vn 0 0.9980469 0
vn 0 0.9980469 0
vn 0 0.9980469 0
vn 0 0.9980469 0
vn 0 0.9980469 0
vt 0.5 1
vt 1 1
vt 0.5 0.5
vt 1 0.5
vt 0.5 0
vt 1 0
f 1/1/1 2/2/2 3/3/3
f 2/2/2 4/4/4 3/3/3
f 3/3/3 4/4/4 5/5/5
f 4/4/4 6/6/6 5/5/5
v 9.038086 1.023438 -10.45703
v 6.709961 1.023438 -13.56934
v 9.038086 1.023438 13.04492
v 6.709961 1.023438 13.04492
v 8.924805 1.023438 15.91504
v 6.709961 1.023438 15.91504
vn 0 0.9980469 0
vn 0 0.9980469 0
vn 0 0.9980469 0
vn 0 0.9980469 0
vn 0 0.9980469 0
vn 0 0.9980469 0
vt 0 1
vt 0.5 1
vt 0 0.5
vt 0.5 0.5
vt 0 0
vt 0.5 0
f 7/7/7 8/8/8 9/9/9
f 8/8/8 10/10/10 9/9/9
f 9/9/9 10/10/10 11/11/11
f 10/10/10 12/12/12 11/11/11
g polygon1
usemtl lambert2
v -5.138672 18.11426 -13.38672
v -2.72168 18.11426 -13.38672
v -5.138672 10.11426 -13.38672
v -2.72168 10.11426 -13.38672
v -5.138672 5.557617 -13.38672
v -2.72168 5.557617 -13.38672
vn 0 0 -1
vn 0 0 -1
vn 0 0 -1
vn 0 0 -1
vn 0 0 -1
vn 0 0 -1
vt 0.5488281 -0.1914063
vt 0.5488281 -0.1660156
vt 0.6367188 -0.1914063
vt 0.6367188 -0.1660156
vt 0.6875 -0.1914063
vt 0.6875 -0.1660156
f 13/13/13 14/14/14 15/15/15
f 14/14/14 16/16/16 15/15/15
f 15/15/15 16/16/16 17/17/17
f 16/16/16 18/18/18 17/17/17
v -5.138672 18.11426 12.91113
v -5.138672 18.11426 -13.38672
v -5.138672 10.11426 12.91113
v -5.138672 10.11426 -13.38672
v -5.138672 5.557617 12.91113
v -5.138672 5.557617 -13.38672
vn -1 0 0
vn -1 0 0
vn -1 0 0
vn -1 0 0
vn -1 0 0
vn -1 0 0
vt 0.6601563 -0.08984375
vt 0.6601563 -0.1582031
vt 0.640625 -0.08984375
vt 0.640625 -0.1582031
vt 0.6289063 -0.08984375
vt 0.6289063 -0.1582031
f 19/19/19 20/20/20 21/21/21
f 20/20/20 22/22/22 21/21/21
f 21/21/21 22/22/22 23/23/23
f 22/22/22 24/24/24 23/23/23
v -2.72168 18.11426 12.91113
v -5.138672 18.11426 12.91113
v -2.72168 10.11426 12.91113
v -5.138672 10.11426 12.91113
v -2.72168 5.557617 12.91113
v -5.138672 5.557617 12.91113
vn 0 0 0.9980469
vn 0 0 0.9980469
vn 0 0 0.9980469
vn 0 0 0.9980469
vn 0 0 0.9980469
vn 0 0 0.9980469
vt 0.6796875 -0.140625
vt 0.6796875 -0.1542969
vt 0.6328125 -0.140625
vt 0.6328125 -0.1542969
vt 0.6054688 -0.140625
vt 0.6054688 -0.1542969
f 25/25/25 26/26/26 27/27/27
f 26/26/26 28/28/28 27/27/27
f 27/27/27 28/28/28 29/29/29
f 28/28/28 30/30/30 29/29/29
v -2.005859 5.416016 12.63965
v -4.422852 5.416016 12.63965
v -4.422852 1.945313 12.63965
v -2.005859 1.945313 12.63965
v 6.37793 5.416016 12.63965
v 7.222656 5.416016 12.63965
v 7.222656 1.945313 12.63965
v 6.37793 1.945313 12.63965
v -2.72168 10.11426 -13.38672
v -2.72168 18.11426 -13.38672
v -2.72168 18.11426 12.91113
v -2.72168 10.11426 12.91113
v -2.72168 18.11426 -13.38672
v -5.138672 18.11426 -13.38672
v -5.138672 18.11426 12.91113
v -2.72168 18.11426 12.91113
v 6.8125 5.557617 -13.38672
v 6.8125 10.11426 -13.38672
v 6.8125 10.11426 12.91113
v 6.8125 5.557617 12.91113
v 6.8125 10.11426 -13.38672
v 6.8125 5.557617 -13.38672
v -2.72168 5.557617 -13.38672
v -2.72168 10.11426 -13.38672
v 6.8125 10.11426 12.91113
v 6.8125 10.11426 -13.38672
v -2.72168 10.11426 -13.38672
v -2.72168 10.11426 12.91113
v 6.8125 5.557617 12.91113
v 6.8125 10.11426 12.91113
v -2.72168 10.11426 12.91113
v -2.72168 5.557617 12.91113
vn 0 0 0.9980469
vn 0 0 0.9980469
vn 0 0 0.9980469
vn 0 0 0.9980469
vn 0 0 -1
vn 0 0 -1
vn 0 0 -1
vn 0 0 -1
vn 0.9980469 0 0
vn 0.9980469 0 0
vn 0.9980469 0 0
vn 0.9980469 0 0
vn 0 0.9980469 0
vn 0 0.9980469 0
vn 0 0.9980469 0
vn 0 0.9980469 0
vn 0.9980469 0 0
vn 0.9980469 0 0
vn 0.9980469 0 0
vn 0.9980469 0 0
vn 0 0 -1
vn 0 0 -1
vn 0 0 -1
vn 0 0 -1
vn 0 0.9980469 0
vn 0 0.9980469 0
vn 0 0.9980469 0
vn 0 0.9980469 0
vn 0 0 0.9980469
vn 0 0 0.9980469
vn 0 0 0.9980469
vn 0 0 0.9980469
vt 0.6289063 -0.1386719
vt 0.6445313 -0.1386719
vt 0.6445313 -0.1601563
vt 0.6289063 -0.1601563
vt 0.6132813 -0.1386719
vt 0.6289063 -0.1386719
vt 0.6289063 -0.1601563
vt 0.6132813 -0.1601563
vt 0.25 -0.03125
vt 0.40625 -0.03125
vt 0.40625 -0.96875
vt 0.25 -0.96875
vt 0.8613281 -0.06835938
vt 0.9082031 -0.06835938
vt 0.9179688 -0.1992188
vt 0.8710938 -0.1992188
vt 0.6347656 -0.08984375
vt 0.6464844 -0.08984375
vt 0.6464844 -0.15625
vt 0.6347656 -0.15625
vt 0.6367188 -0.046875
vt 0.6875 -0.046875
vt 0.6875 -0.1660156
vt 0.6367188 -0.1660156
vt 0.03125 -0.96875
vt 0.03125 -0.03125
vt 0.46875 -0.03125
vt 0.46875 -0.96875
vt 0.6054688 -0.07617188
vt 0.6328125 -0.07617188
vt 0.6328125 -0.140625
vt 0.6054688 -0.140625
f 31/31/31 32/32/32 33/33/33 34/34/34
f 35/35/35 36/36/36 37/37/37 38/38/38
f 39/39/39 40/40/40 41/41/41 42/42/42
f 43/43/43 44/44/44 45/45/45 46/46/46
f 47/47/47 48/48/48 49/49/49 50/50/50
f 51/51/51 52/52/52 53/53/53 54/54/54
f 55/55/55 56/56/56 57/57/57 58/58/58
f 59/59/59 60/60/60 61/61/61 62/62/62
